<svg width="15" height="20" viewBox="0 0 15 20" fill="none" xmlns="http://www.w3.org/2000/svg">
<path d="M14.7409 15.8249L14.7409 15.8242L13.9524 5.69575C13.9524 5.6957 13.9524 5.69564 13.9524 5.69559C13.8937 4.91674 13.2474 4.30075 12.4706 4.30075H11.159C11.0672 2.33087 9.46554 0.75 7.50004 0.75C5.53455 0.75 3.93292 2.33087 3.84113 4.30075H2.52951C1.75296 4.30075 1.10648 4.91642 1.04784 5.69408C1.04783 5.69419 1.04782 5.6943 1.04782 5.69441L0.259096 15.8256L0.259048 15.8262C0.192906 16.7052 0.491702 17.5806 1.08066 18.2288C1.6698 18.8773 2.50552 19.25 3.37494 19.25H11.6251C12.4945 19.25 13.3302 18.8773 13.9194 18.2288L13.7344 18.0607L13.9194 18.2288C14.5084 17.5806 14.8071 16.7052 14.7409 15.8249ZM2.5743 5.85508H3.83698V6.90358C3.83698 7.32822 4.17593 7.68075 4.6041 7.68075C5.03226 7.68075 5.37122 7.32822 5.37122 6.90358V5.85508H9.62887V6.90358C9.62887 7.32822 9.96782 7.68075 10.396 7.68075C10.8242 7.68075 11.1631 7.32822 11.1631 6.90358V5.85508H12.4258L13.2112 15.9443C13.2112 15.9444 13.2113 15.9445 13.2113 15.9446C13.2457 16.4037 13.0962 16.8397 12.7905 17.1762C12.485 17.5125 12.0723 17.6957 11.6251 17.6957H3.37497C2.92775 17.6957 2.5151 17.5125 2.20953 17.1762C1.90382 16.8397 1.7544 16.4037 1.78878 15.9461C1.78879 15.946 1.7888 15.9459 1.78881 15.9458L2.5743 5.85508ZM5.37832 4.30075C5.46767 3.18106 6.3894 2.30434 7.50004 2.30434C8.61068 2.30434 9.53241 3.18109 9.62177 4.30075H5.37832Z" fill="#3FDA85" stroke="#3FDA85" stroke-width="0.5"/>
</svg>
