<svg width="7" height="6" viewBox="0 0 7 6" fill="none" xmlns="http://www.w3.org/2000/svg">
<path d="M5.13377 0.756169C5.4601 0.429801 5.98929 0.429774 6.31561 0.756169L5.13377 0.756169ZM5.13377 0.756169V0.756169L5.13375 0.756184L2.69508 3.19486L1.86617 2.36595C1.86616 2.36594 1.86616 2.36594 1.86615 2.36593C1.5398 2.03954 1.01061 2.03957 0.684239 2.36593C0.357858 2.69232 0.357858 3.22147 0.684239 3.54785L2.10412 4.96773C2.26723 5.13084 2.48155 5.21255 2.69504 5.21255C2.90844 5.21255 3.12283 5.13094 3.28596 4.96773C3.28598 4.96771 3.286 4.96769 3.28602 4.96767L6.31557 1.93812C6.64196 1.61172 6.642 1.08259 6.31564 0.756199L5.13377 0.756169Z" fill="#3FDA85" stroke="white" stroke-width="0.5"/>
</svg>
