<svg width="25" height="24" viewBox="0 0 25 24" fill="none" xmlns="http://www.w3.org/2000/svg">
<g opacity="0.5">
<path opacity="0.4" fill-rule="evenodd" clip-rule="evenodd" d="M6.63416 20.5885C6.63416 19.7485 7.31799 19.0685 8.16272 19.0685C8.99739 19.0685 9.68123 19.7485 9.68123 20.5885C9.68123 21.4185 8.99739 22.0985 8.16272 22.0985C7.31799 22.0985 6.63416 21.4185 6.63416 20.5885ZM17.9475 20.5885C17.9475 19.7485 18.6314 19.0685 19.4761 19.0685C20.3108 19.0685 20.9946 19.7485 20.9946 20.5885C20.9946 21.4185 20.3108 22.0985 19.4761 22.0985C18.6314 22.0985 17.9475 21.4185 17.9475 20.5885Z" fill="url(#paint0_linear_3_7075)"/>
<path fill-rule="evenodd" clip-rule="evenodd" d="M20.9948 6.34899C21.6082 6.34899 22.0105 6.55899 22.4127 7.01899C22.815 7.47899 22.8854 8.13899 22.7948 8.73799L21.8395 15.298C21.6585 16.559 20.5724 17.488 19.2952 17.488H8.32378C6.98628 17.488 5.88009 16.468 5.76947 15.149L4.84428 4.24799L3.32578 3.98799C2.92352 3.91799 2.64195 3.52799 2.71234 3.12799C2.78274 2.71799 3.17493 2.44799 3.58724 2.50799L5.98568 2.86799C6.32759 2.92899 6.579 3.20799 6.60917 3.54799L6.80024 5.78799C6.83041 6.10899 7.09188 6.34899 7.41368 6.34899H20.9948ZM14.9006 11.548H17.6862C18.1086 11.548 18.4405 11.208 18.4405 10.798C18.4405 10.378 18.1086 10.048 17.6862 10.048H14.9006C14.4783 10.048 14.1464 10.378 14.1464 10.798C14.1464 11.208 14.4783 11.548 14.9006 11.548Z" fill="url(#paint1_linear_3_7075)"/>
</g>
<defs>
<linearGradient id="paint0_linear_3_7075" x1="6.63416" y1="18.8824" x2="17.6631" y2="26.981" gradientUnits="userSpaceOnUse">
<stop stop-color="#53E88B"/>
<stop offset="1" stop-color="#15BE77"/>
</linearGradient>
<linearGradient id="paint1_linear_3_7075" x1="2.70154" y1="1.57933" x2="25.5082" y2="6.32468" gradientUnits="userSpaceOnUse">
<stop stop-color="#53E88B"/>
<stop offset="1" stop-color="#15BE77"/>
</linearGradient>
</defs>
</svg>
