<svg width="25" height="24" viewBox="0 0 25 24" fill="none" xmlns="http://www.w3.org/2000/svg">
<path d="M9.4037 20.7821V17.7152C9.40368 16.9381 10.0392 16.3067 10.8264 16.3018H13.7167C14.5074 16.3018 15.1484 16.9346 15.1484 17.7152V20.7732C15.1484 21.4473 15.6993 21.9951 16.382 22H18.3539C19.2749 22.0023 20.159 21.6428 20.811 21.0007C21.4631 20.3586 21.8296 19.4868 21.8296 18.5775V9.86585C21.8296 9.13139 21.4998 8.43471 20.9292 7.9635L14.23 2.67427C13.059 1.74912 11.3864 1.77901 10.2501 2.74538L3.69499 7.9635C3.09737 8.42082 2.74019 9.11956 2.72253 9.86585V18.5686C2.72253 20.4637 4.27863 22 6.19818 22H8.12509C8.45381 22.0023 8.7699 21.8751 9.00319 21.6464C9.23649 21.4178 9.36769 21.1067 9.36768 20.7821H9.4037Z" fill="url(#paint0_linear_3_7067)"/>
<defs>
<linearGradient id="paint0_linear_3_7067" x1="2.72253" y1="0.77193" x2="24.825" y2="4.04349" gradientUnits="userSpaceOnUse">
<stop stop-color="#53E88B"/>
<stop offset="1" stop-color="#15BE77"/>
</linearGradient>
</defs>
</svg>
