<svg width="17" height="21" viewBox="0 0 17 21" fill="none" xmlns="http://www.w3.org/2000/svg">
<path d="M8.4787 14.1747C4.1414 14.1747 0.436646 14.8547 0.436646 17.5747C0.436646 20.2957 4.11827 20.9997 8.4787 20.9997C12.816 20.9997 16.5208 20.3207 16.5208 17.5997C16.5208 14.8787 12.8401 14.1747 8.4787 14.1747Z" fill="url(#paint0_linear_3_7080)"/>
<path opacity="0.4" d="M7.76969 10.584C10.7242 10.584 13.0915 8.229 13.0915 5.292C13.0915 2.355 10.7242 0 7.76969 0C4.81614 0 2.44788 2.355 2.44788 5.292C2.44788 8.229 4.81614 10.584 7.76969 10.584Z" fill="url(#paint1_linear_3_7080)"/>
<defs>
<linearGradient id="paint0_linear_3_7080" x1="0.436645" y1="13.7556" x2="17.2133" y2="19.8812" gradientUnits="userSpaceOnUse">
<stop stop-color="#53E88B"/>
<stop offset="1" stop-color="#15BE77"/>
</linearGradient>
<linearGradient id="paint1_linear_3_7080" x1="2.44788" y1="-0.649894" x2="14.7317" y2="1.26402" gradientUnits="userSpaceOnUse">
<stop stop-color="#53E88B"/>
<stop offset="1" stop-color="#15BE77"/>
</linearGradient>
</defs>
</svg>
