<svg width="255" height="34" viewBox="0 0 255 34" fill="none" xmlns="http://www.w3.org/2000/svg">
<path d="M13.7839 5.79232C14.8632 3.49059 18.1369 3.49059 19.2163 5.79232L20.7135 8.98516C21.1379 9.8903 21.9854 10.5245 22.9735 10.6766L26.5715 11.2302C28.9833 11.6012 29.9667 14.5431 28.263 16.29L25.4735 19.1499C24.8089 19.8313 24.5071 20.7876 24.6601 21.7271L25.291 25.5992C25.6939 28.0715 23.0686 29.9195 20.8771 28.7063L17.953 27.0876C17.049 26.5872 15.9511 26.5872 15.0471 27.0876L12.123 28.7063C9.93153 29.9195 7.3063 28.0715 7.70912 25.5992L8.34003 21.7271C8.4931 20.7876 8.19129 19.8313 7.52669 19.1499L4.73721 16.29C3.03343 14.5431 4.01686 11.6012 6.42862 11.2302L10.0267 10.6766C11.0148 10.5245 11.8622 9.8903 12.2867 8.98516L13.7839 5.79232Z" fill="#FEAD1D"/>
<path d="M69.2965 5.61687C70.3868 3.35151 73.6127 3.35151 74.703 5.61686L76.3325 9.00283C76.7632 9.89771 77.6089 10.5215 78.591 10.6687L82.3632 11.2342C84.7993 11.5994 85.7814 14.5825 84.0387 16.3235L81.2184 19.1408C80.5322 19.8263 80.2197 20.8013 80.3797 21.758L81.0315 25.6555C81.4431 28.1168 78.8447 29.9753 76.6484 28.7907L73.4239 27.0515C72.535 26.572 71.4645 26.572 70.5756 27.0515L67.3511 28.7907C65.1548 29.9753 62.5565 28.1168 62.968 25.6555L63.6198 21.758C63.7798 20.8013 63.4673 19.8263 62.7811 19.1408L59.9609 16.3235C58.2181 14.5825 59.2002 11.5994 61.6363 11.2342L65.4085 10.6687C66.3906 10.5215 67.2363 9.89771 67.667 9.00283L69.2965 5.61687Z" fill="#FEAD1D"/>
<path opacity="0.3" d="M180.297 5.61687C181.387 3.35151 184.613 3.35151 185.703 5.61686L187.333 9.00283C187.763 9.89771 188.609 10.5215 189.591 10.6687L193.363 11.2342C195.799 11.5994 196.781 14.5825 195.039 16.3235L192.218 19.1408C191.532 19.8263 191.22 20.8013 191.38 21.758L192.031 25.6555C192.443 28.1168 189.845 29.9753 187.648 28.7907L184.424 27.0515C183.535 26.572 182.465 26.572 181.576 27.0515L178.351 28.7907C176.155 29.9753 173.556 28.1168 173.968 25.6555L174.62 21.758C174.78 20.8013 174.467 19.8263 173.781 19.1408L170.961 16.3235C169.218 14.5825 170.2 11.5994 172.636 11.2342L176.409 10.6687C177.391 10.5215 178.236 9.89771 178.667 9.00283L180.297 5.61687Z" fill="#FEAD1D"/>
<path opacity="0.3" d="M235.784 5.79232C236.863 3.49059 240.137 3.49059 241.216 5.79232L242.713 8.98516C243.138 9.8903 243.985 10.5245 244.973 10.6766L248.572 11.2302C250.983 11.6012 251.967 14.5431 250.263 16.29L247.473 19.1499C246.809 19.8313 246.507 20.7876 246.66 21.7271L247.291 25.5992C247.694 28.0715 245.069 29.9195 242.877 28.7063L239.953 27.0876C239.049 26.5872 237.951 26.5872 237.047 27.0876L234.123 28.7063C231.932 29.9195 229.306 28.0715 229.709 25.5992L230.34 21.7271C230.493 20.7876 230.191 19.8313 229.527 19.1499L226.737 16.29C225.033 14.5431 226.017 11.6012 228.429 11.2302L232.027 10.6766C233.015 10.5245 233.862 9.8903 234.287 8.98516L235.784 5.79232Z" fill="#FEAD1D"/>
<path d="M124.784 5.79232C125.863 3.49059 129.137 3.49059 130.216 5.79232L131.713 8.98516C132.138 9.8903 132.985 10.5245 133.973 10.6766L137.572 11.2302C139.983 11.6012 140.967 14.5431 139.263 16.29L136.473 19.1499C135.809 19.8313 135.507 20.7876 135.66 21.7271L136.291 25.5992C136.694 28.0715 134.069 29.9195 131.877 28.7063L128.953 27.0876C128.049 26.5872 126.951 26.5872 126.047 27.0876L123.123 28.7063C120.932 29.9195 118.306 28.0715 118.709 25.5992L119.34 21.7271C119.493 20.7876 119.191 19.8313 118.527 19.1499L115.737 16.29C114.033 14.5431 115.017 11.6012 117.429 11.2302L121.027 10.6766C122.015 10.5245 122.862 9.8903 123.287 8.98516L124.784 5.79232Z" fill="#FEAD1D"/>
<circle cx="140" cy="2.5" r="1.5" fill="#FEAD1D"/>
<circle opacity="0.5" cx="123.5" cy="32.6666" r="1" fill="#FEAD1D"/>
<circle cx="113.5" cy="22.6666" r="2" fill="#FEAD1D"/>
<circle opacity="0.6" cx="139" cy="27.1666" r="0.5" fill="#FEAD1D"/>
<circle cx="120" cy="7.5" r="0.5" fill="#FEAD1D"/>
</svg>
